<svg width="333.8624755859375px" height="122.021240234375px" xmlns="http://www.w3.org/2000/svg" viewBox="83.06876220703126 13.9893798828125 333.8624755859375 122.021240234375" style="background:#596886" preserveAspectRatio="xMidYMid"><defs><filter id="editing-hover" x="-100%" y="-100%" width="300%" height="300%"><feFlood flood-color="#052b4a" result="flood"></feFlood><feComposite operator="in" in2="SourceAlpha" in="flood" result="shadow"></feComposite><feOffset dx="-4" dy="-4" in="SourceGraphic" result="offset-1"></feOffset><feOffset dx="4" dy="4" in="shadow" result="offset-2"></feOffset><feMerge><feMergeNode in="offset-2"></feMergeNode><feMergeNode in="offset-1"></feMergeNode></feMerge></filter></defs><g filter="url(#editing-hover)"><g transform="translate(135.7300005853176, 97.42218780517578)"><path d="M30.21-33.92L30.21-33.92L30.21-33.92Q25.02-33.92 21.25-35.65L21.25-35.65L19.20-25.28L31.55-25.28L31.55-25.28Q31.55-21.89 29.86-19.74L29.86-19.74L29.86-19.74Q28.16-17.60 25.09-17.60L25.09-17.60L25.09-17.60Q21.76-17.60 18.69-18.82L18.69-18.82L18.69-18.82Q18.05-19.07 17.98-19.14L17.98-19.14L14.34 0L0.38 0L8.51-42.24L37.06-42.24L37.06-42.24Q37.06-38.34 35.23-36.13L35.23-36.13L35.23-36.13Q33.41-33.92 30.21-33.92ZM62.21-9.86L62.21-9.86L62.21-9.86Q63.42-8.32 63.42-5.34L63.42-5.34L63.42-5.34Q63.42-2.37 61.15-0.54L61.15-0.54L61.15-0.54Q58.88 1.28 54.91 1.28L54.91 1.28L54.91 1.28Q52.61 1.28 49.02 0.77L49.02 0.77L49.02 0.77Q41.98-0.32 39.97-0.32L39.97-0.32L39.97-0.32Q37.95-0.32 37.12-0.22L37.12-0.22L37.12-0.22Q36.29-0.13 34.94 0L34.94 0L42.69-42.24L56.70-42.24L50.30-7.04L50.30-7.04Q51.14-6.91 51.90-6.91L51.90-6.91L53.50-6.91L53.50-6.91Q58.88-6.91 62.21-9.86ZM68.03-15.62L68.03-15.62L68.03-15.62Q68.03-27.71 74.30-35.33L74.30-35.33L74.30-35.33Q80.96-43.58 92.54-43.58L92.54-43.58L92.54-43.58Q100.93-43.58 105.15-39.52L105.15-39.52L105.15-39.52Q109.38-35.46 109.38-26.88L109.38-26.88L109.38-26.88Q109.38-13.82 102.72-6.21L102.72-6.21L102.72-6.21Q96.13 1.28 85.06 1.28L85.06 1.28L85.06 1.28Q76.42 1.28 72.22-3.04L72.22-3.04L72.22-3.04Q68.03-7.36 68.03-15.62ZM84.86-28.86L84.86-28.86L84.86-28.86Q81.98-17.34 81.98-8.26L81.98-8.26L81.98-8.26Q81.98-6.08 82.72-4.67L82.72-4.67L82.72-4.67Q83.46-3.26 85.41-3.26L85.41-3.26L85.41-3.26Q87.36-3.26 88.58-4.19L88.58-4.19L88.58-4.19Q89.79-5.12 90.75-7.23L90.75-7.23L90.75-7.23Q92.29-10.69 93.73-18.02L93.73-18.02L93.73-18.02Q95.17-25.34 95.30-28.38L95.30-28.38L95.30-28.38Q95.42-31.42 95.42-33.73L95.42-33.73L95.42-33.73Q95.42-36.03 94.72-37.50L94.72-37.50L94.72-37.50Q94.02-38.98 92.13-38.98L92.13-38.98L92.13-38.98Q90.24-38.98 88.96-37.82L88.96-37.82L88.96-37.82Q86.59-35.65 84.86-28.86ZM137.54-42.69L137.54-42.69L137.54-42.69Q153.22-42.69 153.22-31.62L153.22-31.62L153.22-31.62Q153.22-25.54 149.31-21.89L149.31-21.89L149.31-21.89Q145.47-18.24 138.75-18.24L138.75-18.24L138.75-18.24Q135.62-18.24 133.18-20.03L133.18-20.03L133.18-20.03Q132.03-20.80 131.26-21.82L131.26-21.82L131.26-21.82Q135.94-21.82 138.40-24.67L138.40-24.67L138.40-24.67Q140.86-27.52 140.86-33.09L140.86-33.09L140.86-33.09Q140.86-38.66 135.36-38.66L135.36-38.66L133.82-38.66L133.82-38.66Q133.44-38.66 133.12-38.59L133.12-38.59L125.76 0L111.87 0L119.74-41.92L119.74-41.92Q126.59-42.56 130.56-42.62L130.56-42.62L130.56-42.62Q134.53-42.69 137.54-42.69ZM178.56-42.69L178.56-42.69L178.56-42.69Q194.24-42.69 194.24-31.62L194.24-31.62L194.24-31.62Q194.24-25.54 190.34-21.89L190.34-21.89L190.34-21.89Q186.50-18.24 179.78-18.24L179.78-18.24L179.78-18.24Q176.64-18.24 174.21-20.03L174.21-20.03L174.21-20.03Q173.06-20.80 172.29-21.82L172.29-21.82L172.29-21.82Q176.96-21.82 179.42-24.67L179.42-24.67L179.42-24.67Q181.89-27.52 181.89-33.09L181.89-33.09L181.89-33.09Q181.89-38.66 176.38-38.66L176.38-38.66L174.85-38.66L174.85-38.66Q174.46-38.66 174.14-38.59L174.14-38.59L166.78 0L152.90 0L160.77-41.92L160.77-41.92Q167.62-42.56 171.58-42.62L171.58-42.62L171.58-42.62Q175.55-42.69 178.56-42.69ZM221.12 1.28L221.12 1.28L221.12 1.28Q212.93 1.28 212.16-10.37L212.16-10.37L201.15-10.37L201.15-10.37Q199.87-7.42 198.98-4.86L198.98-4.86L197.31 0L188.35 0L208.51-42.24L222.27-42.24L224.96-11.14L224.96-11.14Q225.60-4.42 228.16-2.43L228.16-2.43L228.16-2.43Q226.30 1.28 221.12 1.28ZM206.66-23.17L203.14-15.04L211.97-15.04L211.20-31.49L211.20-33.22L206.66-23.17Z" fill="#ffd5af"></path></g></g><style>text {
  font-size: 64px;
  font-family: Arial Black;
  dominant-baseline: central;
  text-anchor: middle;
}</style></svg>