<svg width="1040.5100585937498px" height="122.021240234375px" xmlns="http://www.w3.org/2000/svg" viewBox="-270.2550292968749 13.9893798828125 1040.5100585937498 122.021240234375" style="background:#596886" preserveAspectRatio="xMidYMid"><defs><filter id="editing-hover" x="-100%" y="-100%" width="300%" height="300%"><feFlood flood-color="#052b4a" result="flood"></feFlood><feComposite operator="in" in2="SourceAlpha" in="flood" result="shadow"></feComposite><feOffset dx="-4" dy="-4" in="SourceGraphic" result="offset-1"></feOffset><feOffset dx="4" dy="4" in="shadow" result="offset-2"></feOffset><feMerge><feMergeNode in="offset-2"></feMergeNode><feMergeNode in="offset-1"></feMergeNode></feMerge></filter></defs><g filter="url(#editing-hover)"><g transform="translate(-124.84998899698257, 104.75218772888184)"><path d="M27.84-9.86L27.84-9.86L27.84-9.86Q29.06-8.32 29.06-5.34L29.06-5.34L29.06-5.34Q29.06-2.37 26.78-0.54L26.78-0.54L26.78-0.54Q24.51 1.28 20.54 1.28L20.54 1.28L20.54 1.28Q18.24 1.28 14.66 0.77L14.66 0.77L14.66 0.77Q7.62-0.32 5.60-0.32L5.60-0.32L5.60-0.32Q3.58-0.32 2.75-0.22L2.75-0.22L2.75-0.22Q1.92-0.13 0.58 0L0.58 0L8.32-42.24L22.34-42.24L15.94-7.04L15.94-7.04Q16.77-6.91 17.54-6.91L17.54-6.91L19.14-6.91L19.14-6.91Q24.51-6.91 27.84-9.86ZM36.13-1.92L36.13-1.92L36.13-1.92Q34.62-3.58 33.95-6.21L33.95-6.21L33.95-6.21Q33.28-8.83 33.28-13.12L33.28-13.12L33.28-13.12Q33.28-17.41 34.75-21.31L34.75-21.31L34.75-21.31Q36.22-25.22 38.91-28.03L38.91-28.03L38.91-28.03Q44.42-33.92 53.50-33.92L53.50-33.92L53.50-33.92Q56.77-33.92 59.14-32.83L59.14-32.83L70.08-33.92L65.34-8.96L65.34-8.96Q65.15-8.19 65.15-6.78L65.15-6.78L65.15-6.78Q65.15-5.38 66.02-4.48L66.02-4.48L66.02-4.48Q66.88-3.58 68.16-3.46L68.16-3.46L68.16-3.46Q67.52-1.28 65.18 0L65.18 0L65.18 0Q62.85 1.28 60.22 1.28L60.22 1.28L60.22 1.28Q57.60 1.28 55.84 0.29L55.84 0.29L55.84 0.29Q54.08-0.70 53.57-2.37L53.57-2.37L53.57-2.37Q52.54-0.77 50.37 0.26L50.37 0.26L50.37 0.26Q48.19 1.28 45.28 1.28L45.28 1.28L45.28 1.28Q42.37 1.28 40 0.51L40 0.51L40 0.51Q37.63-0.26 36.13-1.92ZM49.63-27.90L49.63-27.90L49.63-27.90Q48.90-26.75 48.26-24.80L48.26-24.80L48.26-24.80Q47.62-22.85 46.56-17.63L46.56-17.63L46.56-17.63Q45.50-12.42 45.50-8.70L45.50-8.70L45.50-8.70Q45.50-4.99 46.08-3.90L46.08-3.90L46.08-3.90Q46.66-2.82 47.68-2.82L47.68-2.82L47.68-2.82Q49.73-2.82 51.23-4.77L51.23-4.77L51.23-4.77Q52.74-6.72 53.31-10.18L53.31-10.18L56.70-28.93L56.70-28.93Q55.36-30.08 53.79-30.08L53.79-30.08L53.79-30.08Q52.22-30.08 51.30-29.57L51.30-29.57L51.30-29.57Q50.37-29.06 49.63-27.90ZM116.54-4.38L116.54-4.38L116.54-4.38Q113.86-1.66 110.18-0.19L110.18-0.19L110.18-0.19Q106.50 1.28 102.85 1.28L102.85 1.28L102.85 1.28Q99.20 1.28 97.92 0.64L97.92 0.64L95.94 11.52L82.94 12.80L91.78-32.64L102.21-33.73L101.38-29.31L101.38-29.31Q104.06-33.86 109.63-33.86L109.63-33.86L109.63-33.86Q115.90-33.86 119.23-29.82L119.23-29.82L119.23-29.82Q122.18-26.18 122.18-20.61L122.18-20.61L122.18-20.61Q122.18-15.04 120.70-11.07L120.70-11.07L120.70-11.07Q119.23-7.10 116.54-4.38ZM102.08-22.34L98.69-3.58L98.69-3.58Q100.03-2.43 101.70-2.43L101.70-2.43L101.70-2.43Q103.36-2.43 104.32-3.07L104.32-3.07L104.32-3.07Q105.28-3.71 105.98-4.99L105.98-4.99L105.98-4.99Q107.90-8.45 109.44-18.94L109.44-18.94L109.44-18.94Q109.89-22.02 109.89-25.02L109.89-25.02L109.89-25.02Q109.89-28.03 109.22-28.99L109.22-28.99L109.22-28.99Q108.54-29.95 107.26-29.95L107.26-29.95L107.26-29.95Q103.36-29.95 102.08-22.34L102.08-22.34ZM128.80-1.92L128.80-1.92L128.80-1.92Q127.30-3.58 126.62-6.21L126.62-6.21L126.62-6.21Q125.95-8.83 125.95-13.12L125.95-13.12L125.95-13.12Q125.95-17.41 127.42-21.31L127.42-21.31L127.42-21.31Q128.90-25.22 131.58-28.03L131.58-28.03L131.58-28.03Q137.09-33.92 146.18-33.92L146.18-33.92L146.18-33.92Q149.44-33.92 151.81-32.83L151.81-32.83L162.75-33.92L158.02-8.96L158.02-8.96Q157.82-8.19 157.82-6.78L157.82-6.78L157.82-6.78Q157.82-5.38 158.69-4.48L158.69-4.48L158.69-4.48Q159.55-3.58 160.83-3.46L160.83-3.46L160.83-3.46Q160.19-1.28 157.86 0L157.86 0L157.86 0Q155.52 1.28 152.90 1.28L152.90 1.28L152.90 1.28Q150.27 1.28 148.51 0.29L148.51 0.29L148.51 0.29Q146.75-0.70 146.24-2.37L146.24-2.37L146.24-2.37Q145.22-0.77 143.04 0.26L143.04 0.26L143.04 0.26Q140.86 1.28 137.95 1.28L137.95 1.28L137.95 1.28Q135.04 1.28 132.67 0.51L132.67 0.51L132.67 0.51Q130.30-0.26 128.80-1.92ZM142.30-27.90L142.30-27.90L142.30-27.90Q141.57-26.75 140.93-24.80L140.93-24.80L140.93-24.80Q140.29-22.85 139.23-17.63L139.23-17.63L139.23-17.63Q138.18-12.42 138.18-8.70L138.18-8.70L138.18-8.70Q138.18-4.99 138.75-3.90L138.75-3.90L138.75-3.90Q139.33-2.82 140.35-2.82L140.35-2.82L140.35-2.82Q142.40-2.82 143.90-4.77L143.90-4.77L143.90-4.77Q145.41-6.72 145.98-10.18L145.98-10.18L149.38-28.93L149.38-28.93Q148.03-30.08 146.46-30.08L146.46-30.08L146.46-30.08Q144.90-30.08 143.97-29.57L143.97-29.57L143.97-29.57Q143.04-29.06 142.30-27.90ZM170.50-26.75L170.50-26.75L170.50-26.75Q172.67-29.82 175.97-31.87L175.97-31.87L175.97-31.87Q179.26-33.92 183.30-33.92L183.30-33.92L183.30-33.92Q187.33-33.92 189.25-32.64L189.25-32.64L201.79-33.92L197.44-9.34L197.44-9.34Q195.20 3.20 190.46 8.13L190.46 8.13L190.46 8.13Q185.92 12.80 177.09 12.80L177.09 12.80L177.09 12.80Q170.37 12.80 166.53 10.69L166.53 10.69L166.53 10.69Q162.69 8.58 162.69 5.06L162.69 5.06L162.69 5.06Q162.69 2.43 164.67 0.93L164.67 0.93L164.67 0.93Q166.66-0.58 169.73-0.58L169.73-0.58L169.73-0.58Q172.42-0.58 174.46 0.64L174.46 0.64L174.46 0.64Q175.68 1.28 176.26 2.18L176.26 2.18L176.26 2.18Q174.78 3.46 174.78 5.57L174.78 5.57L174.78 5.57Q174.78 8.32 177.34 8.32L177.34 8.32L177.34 8.32Q181.63 8.32 184.06-1.79L184.06-1.79L184.06-1.79Q184.77-4.54 185.34-7.30L185.34-7.30L185.34-7.30Q182.46-3.78 175.94-3.78L175.94-3.78L175.94-3.78Q171.39-3.78 168.77-5.95L168.77-5.95L168.77-5.95Q166.14-8.13 166.14-13.25L166.14-13.25L166.14-13.25Q166.14-16.45 167.23-20.06L167.23-20.06L167.23-20.06Q168.32-23.68 170.50-26.75ZM178.82-13.06L178.82-13.06L178.82-13.06Q178.82-8.70 181.06-8.70L181.06-8.70L181.06-8.70Q182.59-8.70 184.06-10.37L184.06-10.37L184.06-10.37Q185.22-11.71 185.66-13.70L185.66-13.70L188.93-30.14L188.93-30.14Q188.61-30.21 188.29-30.34L188.29-30.34L188.29-30.34Q187.65-30.59 186.82-30.59L186.82-30.59L186.82-30.59Q182.91-30.59 180.61-24.19L180.61-24.19L180.61-24.19Q178.82-19.20 178.82-13.06ZM219.65-3.52L219.65-3.52L219.65-3.52Q217.66 1.28 211.33 1.28L211.33 1.28L211.33 1.28Q208.06 1.28 206.02-0.96L206.02-0.96L206.02-0.96Q204.29-2.94 204.29-4.93L204.29-4.93L204.29-4.93Q204.29-10.11 206.66-20.22L206.66-20.22L209.02-32.64L222.02-33.92L218.11-13.70L218.11-13.70Q217.02-8.96 217.02-7.30L217.02-7.30L217.02-7.30Q217.02-3.65 219.65-3.52ZM210.18-41.54L210.18-41.54L210.18-41.54Q210.18-44.03 212.26-45.38L212.26-45.38L212.26-45.38Q214.34-46.72 217.34-46.72L217.34-46.72L217.34-46.72Q220.35-46.72 222.18-45.38L222.18-45.38L222.18-45.38Q224-44.03 224-41.54L224-41.54L224-41.54Q224-39.04 221.98-37.76L221.98-37.76L221.98-37.76Q219.97-36.48 216.96-36.48L216.96-36.48L216.96-36.48Q213.95-36.48 212.06-37.76L212.06-37.76L212.06-37.76Q210.18-39.04 210.18-41.54ZM252.16 1.28L252.16 1.28L252.16 1.28Q244.42 1.28 244.42-4.74L244.42-4.74L244.42-4.74Q244.48-6.40 244.99-9.22L244.99-9.22L246.14-15.10L246.14-15.10Q247.87-23.42 247.87-25.28L247.87-25.28L247.87-25.28Q247.87-28.99 245.70-28.99L245.70-28.99L245.70-28.99Q242.05-28.99 240.13-19.46L240.13-19.46L236.35 0L223.49 1.28L230.14-32.70L240.64-33.92L239.62-27.65L239.62-27.65Q242.62-33.92 251.84-33.92L251.84-33.92L251.84-33.92Q256.32-33.92 258.21-32.03L258.21-32.03L258.21-32.03Q260.10-30.14 260.10-25.92L260.10-25.92L260.10-25.92Q260.10-21.95 258.05-12.67L258.05-12.67L258.05-12.67Q257.09-8.51 257.09-6.94L257.09-6.94L257.09-6.94Q257.09-5.38 257.95-4.48L257.95-4.48L257.95-4.48Q258.82-3.58 260.10-3.46L260.10-3.46L260.10-3.46Q259.46-1.28 257.25 0L257.25 0L257.25 0Q255.04 1.28 252.16 1.28ZM268-1.92L268-1.92L268-1.92Q266.50-3.58 265.82-6.21L265.82-6.21L265.82-6.21Q265.15-8.83 265.15-13.12L265.15-13.12L265.15-13.12Q265.15-17.41 266.62-21.31L266.62-21.31L266.62-21.31Q268.10-25.22 270.78-28.03L270.78-28.03L270.78-28.03Q276.29-33.92 285.38-33.92L285.38-33.92L285.38-33.92Q288.64-33.92 291.01-32.83L291.01-32.83L301.95-33.92L297.22-8.96L297.22-8.96Q297.02-8.19 297.02-6.78L297.02-6.78L297.02-6.78Q297.02-5.38 297.89-4.48L297.89-4.48L297.89-4.48Q298.75-3.58 300.03-3.46L300.03-3.46L300.03-3.46Q299.39-1.28 297.06 0L297.06 0L297.06 0Q294.72 1.28 292.10 1.28L292.10 1.28L292.10 1.28Q289.47 1.28 287.71 0.29L287.71 0.29L287.71 0.29Q285.95-0.70 285.44-2.37L285.44-2.37L285.44-2.37Q284.42-0.77 282.24 0.26L282.24 0.26L282.24 0.26Q280.06 1.28 277.15 1.28L277.15 1.28L277.15 1.28Q274.24 1.28 271.87 0.51L271.87 0.51L271.87 0.51Q269.50-0.26 268-1.92ZM281.50-27.90L281.50-27.90L281.50-27.90Q280.77-26.75 280.13-24.80L280.13-24.80L280.13-24.80Q279.49-22.85 278.43-17.63L278.43-17.63L278.43-17.63Q277.38-12.42 277.38-8.70L277.38-8.70L277.38-8.70Q277.38-4.99 277.95-3.90L277.95-3.90L277.95-3.90Q278.53-2.82 279.55-2.82L279.55-2.82L279.55-2.82Q281.60-2.82 283.10-4.77L283.10-4.77L283.10-4.77Q284.61-6.72 285.18-10.18L285.18-10.18L288.58-28.93L288.58-28.93Q287.23-30.08 285.66-30.08L285.66-30.08L285.66-30.08Q284.10-30.08 283.17-29.57L283.17-29.57L283.17-29.57Q282.24-29.06 281.50-27.90ZM338.75-33.92L338.75-33.92L338.75-33.92Q341.06-33.92 342.85-33.41L342.85-33.41L342.85-33.41Q342.91-33.66 343.04-34.37L343.04-34.37L343.36-36.35L343.36-36.35Q343.62-37.63 344-39.74L344-39.74L345.02-44.80L357.76-46.08L350.66-8.96L350.66-8.96Q350.59-8.58 350.59-7.94L350.59-7.94L350.59-6.91L350.59-6.91Q350.59-5.50 351.30-4.45L351.30-4.45L351.30-4.45Q352-3.39 353.15-3.39L353.15-3.39L353.15-3.39Q351.87-0.38 347.97 0.90L347.97 0.90L347.97 0.90Q346.62 1.28 344.74 1.28L344.74 1.28L344.74 1.28Q342.85 1.28 341.12 0.29L341.12 0.29L341.12 0.29Q339.39-0.70 338.88-2.37L338.88-2.37L338.88-2.37Q337.86-0.70 335.81 0.29L335.81 0.29L335.81 0.29Q333.76 1.28 330.78 1.28L330.78 1.28L330.78 1.28Q327.81 1.28 325.34 0.51L325.34 0.51L325.34 0.51Q322.88-0.26 321.34-1.92L321.34-1.92L321.34-1.92Q318.53-5.18 318.53-12.61L318.53-12.61L318.53-12.61Q318.53-22.21 324.16-28.03L324.16-28.03L324.16-28.03Q329.79-33.92 338.75-33.92ZM338.30-30.08L338.30-30.08L338.30-30.08Q335.94-30.08 334.66-27.52L334.66-27.52L334.66-27.52Q333.38-24.96 332.06-18.62L332.06-18.62L332.06-18.62Q330.75-12.29 330.75-6.59L330.75-6.59L330.75-6.59Q330.75-2.69 333.06-2.69L333.06-2.69L333.06-2.69Q335.10-2.69 336.54-4.74L336.54-4.74L336.54-4.74Q337.98-6.78 338.56-10.18L338.56-10.18L342.02-28.93L342.02-28.93Q340.67-30.08 338.30-30.08ZM384.51-10.82L384.51-10.82L384.51-10.82Q386.11-9.73 386.11-7.33L386.11-7.33L386.11-7.33Q386.11-4.93 384.90-3.39L384.90-3.39L384.90-3.39Q383.68-1.86 381.70-0.83L381.70-0.83L381.70-0.83Q377.60 1.28 373.18 1.28L373.18 1.28L373.18 1.28Q368.77 1.28 366.18 0.32L366.18 0.32L366.18 0.32Q363.58-0.64 361.86-2.43L361.86-2.43L361.86-2.43Q358.46-5.82 358.46-12.03L358.46-12.03L358.46-12.03Q358.46-21.70 363.71-27.58L363.71-27.58L363.71-27.58Q369.34-33.92 379.14-33.92L379.14-33.92L379.14-33.92Q385.22-33.92 388.22-31.36L388.22-31.36L388.22-31.36Q390.46-29.44 390.46-26.30L390.46-26.30L390.46-26.30Q390.46-15.04 371.01-15.04L371.01-15.04L371.01-15.04Q370.75-13.38 370.75-11.97L370.75-11.97L370.75-11.97Q370.75-9.02 372.06-7.90L372.06-7.90L372.06-7.90Q373.38-6.78 375.81-6.78L375.81-6.78L375.81-6.78Q378.24-6.78 380.83-7.90L380.83-7.90L380.83-7.90Q383.42-9.02 384.51-10.82ZM371.46-17.79L371.46-17.79L371.46-17.79Q376-17.79 378.62-20.61L378.62-20.61L378.62-20.61Q381.25-23.30 381.25-27.58L381.25-27.58L381.25-27.58Q381.25-29.06 380.70-29.86L380.70-29.86L380.70-29.86Q380.16-30.66 379.07-30.66L379.07-30.66L379.07-30.66Q377.98-30.66 377.06-30.24L377.06-30.24L377.06-30.24Q376.13-29.82 375.17-28.42L375.17-28.42L375.17-28.42Q372.80-25.22 371.46-17.79ZM421.12-3.52L421.12-3.52L421.12-3.52Q419.14 1.28 412.80 1.28L412.80 1.28L412.80 1.28Q409.60 1.28 407.55-0.96L407.55-0.96L407.55-0.96Q405.89-2.82 405.89-4.93L405.89-4.93L405.89-4.93Q405.89-9.73 408.13-20.22L408.13-20.22L412.80-44.80L425.79-46.08L419.58-13.70L419.58-13.70Q418.50-8.96 418.50-7.30L418.50-7.30L418.50-7.30Q418.50-3.65 421.12-3.52ZM440.51 1.28L440.51 1.28L440.51 1.28Q426.43 1.28 426.43-11.97L426.43-11.97L426.43-11.97Q426.43-21.38 431.62-27.46L431.62-27.46L431.62-27.46Q437.12-33.92 446.66-33.92L446.66-33.92L446.66-33.92Q453.57-33.92 457.09-30.72L457.09-30.72L457.09-30.72Q460.61-27.52 460.61-20.80L460.61-20.80L460.61-20.80Q460.61-10.56 455.10-4.61L455.10-4.61L455.10-4.61Q449.73 1.28 440.51 1.28ZM442.18-26.56L442.18-26.56L442.18-26.56Q441.41-24.83 440.80-22.24L440.80-22.24L440.80-22.24Q440.19-19.65 439.42-15.55L439.42-15.55L439.42-15.55Q438.66-11.46 438.66-6.40L438.66-6.40L438.66-6.40Q438.66-4.74 439.20-3.65L439.20-3.65L439.20-3.65Q439.74-2.56 441.22-2.56L441.22-2.56L441.22-2.56Q442.69-2.56 443.62-3.26L443.62-3.26L443.62-3.26Q444.54-3.97 445.25-5.63L445.25-5.63L445.25-5.63Q446.53-8.58 447.55-14.05L447.55-14.05L447.55-14.05Q448.58-19.52 448.67-21.89L448.67-21.89L448.67-21.89Q448.77-24.26 448.77-26.02L448.77-26.02L448.77-26.02Q448.77-27.78 448.26-28.93L448.26-28.93L448.26-28.93Q447.74-30.08 446.30-30.08L446.30-30.08L446.30-30.08Q444.86-30.08 443.90-29.18L443.90-29.18L443.90-29.18Q442.94-28.29 442.18-26.56ZM483.52-22.46L483.52-22.46L483.52-22.46Q484.42-24.83 484.42-26.88L484.42-26.88L484.42-26.88Q484.42-30.66 481.34-30.66L481.34-30.66L481.34-30.66Q479.74-30.66 478.43-29.22L478.43-29.22L478.43-29.22Q477.12-27.78 477.12-25.98L477.12-25.98L477.12-25.98Q477.12-24.70 478.14-23.68L478.14-23.68L478.14-23.68Q479.62-22.27 483.39-19.97L483.39-19.97L483.39-19.97Q487.17-17.66 488.61-15.78L488.61-15.78L488.61-15.78Q490.05-13.89 490.05-11.30L490.05-11.30L490.05-11.30Q490.05-8.70 488.80-6.34L488.80-6.34L488.80-6.34Q487.55-3.97 485.31-2.30L485.31-2.30L485.31-2.30Q480.51 1.28 472.83 1.28L472.83 1.28L472.83 1.28Q468.67 1.28 465.47-0.90L465.47-0.90L465.47-0.90Q462.27-3.01 462.27-5.50L462.27-5.50L462.27-5.50Q462.27-8 464.10-9.47L464.10-9.47L464.10-9.47Q465.92-10.94 468.61-10.94L468.61-10.94L468.61-10.94Q471.30-10.94 472.96-9.92L472.96-9.92L472.96-9.92Q472.13-7.81 472.13-6.40L472.13-6.40L472.13-6.40Q472.13-2.18 475.71-2.18L475.71-2.18L475.71-2.18Q477.25-2.18 478.27-3.14L478.27-3.14L478.27-3.14Q479.30-4.10 479.30-5.76L479.30-5.76L479.30-5.76Q479.30-9.02 473.79-12.48L473.79-12.48L473.79-12.48Q469.31-15.42 468.29-16.58L468.29-16.58L468.29-16.58Q466.56-18.62 466.56-21.18L466.56-21.18L466.56-21.18Q466.56-23.74 467.78-26.18L467.78-26.18L467.78-26.18Q468.99-28.61 471.23-30.34L471.23-30.34L471.23-30.34Q475.90-33.92 484.03-33.92L484.03-33.92L484.03-33.92Q488.19-33.92 490.66-32.26L490.66-32.26L490.66-32.26Q493.12-30.59 493.12-27.78L493.12-27.78L493.12-27.78Q493.12-24.96 491.42-23.36L491.42-23.36L491.42-23.36Q489.73-21.76 486.66-21.76L486.66-21.76L486.66-21.76Q484.54-21.76 483.52-22.46ZM537.79-33.92L537.79-33.92L537.79-33.92Q532.61-33.92 528.83-35.65L528.83-35.65L526.78-25.28L539.14-25.28L539.14-25.28Q539.14-21.89 537.44-19.74L537.44-19.74L537.44-19.74Q535.74-17.60 532.67-17.60L532.67-17.60L532.67-17.60Q529.34-17.60 526.27-18.82L526.27-18.82L526.27-18.82Q525.63-19.07 525.57-19.14L525.57-19.14L521.92 0L507.97 0L516.10-42.24L544.64-42.24L544.64-42.24Q544.64-38.34 542.82-36.13L542.82-36.13L542.82-36.13Q540.99-33.92 537.79-33.92ZM558.34-3.52L558.34-3.52L558.34-3.52Q556.35 1.28 550.02 1.28L550.02 1.28L550.02 1.28Q546.82 1.28 544.77-0.96L544.77-0.96L544.77-0.96Q543.10-2.82 543.10-4.93L543.10-4.93L543.10-4.93Q543.10-9.73 545.34-20.22L545.34-20.22L550.02-44.80L563.01-46.08L556.80-13.70L556.80-13.70Q555.71-8.96 555.71-7.30L555.71-7.30L555.71-7.30Q555.71-3.65 558.34-3.52ZM577.73 1.28L577.73 1.28L577.73 1.28Q563.65 1.28 563.65-11.97L563.65-11.97L563.65-11.97Q563.65-21.38 568.83-27.46L568.83-27.46L568.83-27.46Q574.34-33.92 583.87-33.92L583.87-33.92L583.87-33.92Q590.78-33.92 594.30-30.72L594.30-30.72L594.30-30.72Q597.82-27.52 597.82-20.80L597.82-20.80L597.82-20.80Q597.82-10.56 592.32-4.61L592.32-4.61L592.32-4.61Q586.94 1.28 577.73 1.28ZM579.39-26.56L579.39-26.56L579.39-26.56Q578.62-24.83 578.02-22.24L578.02-22.24L578.02-22.24Q577.41-19.65 576.64-15.55L576.64-15.55L576.64-15.55Q575.87-11.46 575.87-6.40L575.87-6.40L575.87-6.40Q575.87-4.74 576.42-3.65L576.42-3.65L576.42-3.65Q576.96-2.56 578.43-2.56L578.43-2.56L578.43-2.56Q579.90-2.56 580.83-3.26L580.83-3.26L580.83-3.26Q581.76-3.97 582.46-5.63L582.46-5.63L582.46-5.63Q583.74-8.58 584.77-14.05L584.77-14.05L584.77-14.05Q585.79-19.52 585.89-21.89L585.89-21.89L585.89-21.89Q585.98-24.26 585.98-26.02L585.98-26.02L585.98-26.02Q585.98-27.78 585.47-28.93L585.47-28.93L585.47-28.93Q584.96-30.08 583.52-30.08L583.52-30.08L583.52-30.08Q582.08-30.08 581.12-29.18L581.12-29.18L581.12-29.18Q580.16-28.29 579.39-26.56ZM631.42-4.38L631.42-4.38L631.42-4.38Q628.74-1.66 625.06-0.19L625.06-0.19L625.06-0.19Q621.38 1.28 617.73 1.28L617.73 1.28L617.73 1.28Q614.08 1.28 612.80 0.64L612.80 0.64L610.82 11.52L597.82 12.80L606.66-32.64L617.09-33.73L616.26-29.31L616.26-29.31Q618.94-33.86 624.51-33.86L624.51-33.86L624.51-33.86Q630.78-33.86 634.11-29.82L634.11-29.82L634.11-29.82Q637.06-26.18 637.06-20.61L637.06-20.61L637.06-20.61Q637.06-15.04 635.58-11.07L635.58-11.07L635.58-11.07Q634.11-7.10 631.42-4.38ZM616.96-22.34L613.57-3.58L613.57-3.58Q614.91-2.43 616.58-2.43L616.58-2.43L616.58-2.43Q618.24-2.43 619.20-3.07L619.20-3.07L619.20-3.07Q620.16-3.71 620.86-4.99L620.86-4.99L620.86-4.99Q622.78-8.45 624.32-18.94L624.32-18.94L624.32-18.94Q624.77-22.02 624.77-25.02L624.77-25.02L624.77-25.02Q624.77-28.03 624.10-28.99L624.10-28.99L624.10-28.99Q623.42-29.95 622.14-29.95L622.14-29.95L622.14-29.95Q618.24-29.95 616.96-22.34L616.96-22.34ZM670.72-4.38L670.72-4.38L670.72-4.38Q668.03-1.66 664.35-0.19L664.35-0.19L664.35-0.19Q660.67 1.28 657.02 1.28L657.02 1.28L657.02 1.28Q653.38 1.28 652.10 0.64L652.10 0.64L650.11 11.52L637.12 12.80L645.95-32.64L656.38-33.73L655.55-29.31L655.55-29.31Q658.24-33.86 663.81-33.86L663.81-33.86L663.81-33.86Q670.08-33.86 673.41-29.82L673.41-29.82L673.41-29.82Q676.35-26.18 676.35-20.61L676.35-20.61L676.35-20.61Q676.35-15.04 674.88-11.07L674.88-11.07L674.88-11.07Q673.41-7.10 670.72-4.38ZM656.26-22.34L652.86-3.58L652.86-3.58Q654.21-2.43 655.87-2.43L655.87-2.43L655.87-2.43Q657.54-2.43 658.50-3.07L658.50-3.07L658.50-3.07Q659.46-3.71 660.16-4.99L660.16-4.99L660.16-4.99Q662.08-8.45 663.62-18.94L663.62-18.94L663.62-18.94Q664.06-22.02 664.06-25.02L664.06-25.02L664.06-25.02Q664.06-28.03 663.39-28.99L663.39-28.99L663.39-28.99Q662.72-29.95 661.44-29.95L661.44-29.95L661.44-29.95Q657.54-29.95 656.26-22.34L656.26-22.34ZM682.98-1.92L682.98-1.92L682.98-1.92Q681.47-3.58 680.80-6.21L680.80-6.21L680.80-6.21Q680.13-8.83 680.13-13.12L680.13-13.12L680.13-13.12Q680.13-17.41 681.60-21.31L681.60-21.31L681.60-21.31Q683.07-25.22 685.76-28.03L685.76-28.03L685.76-28.03Q691.26-33.92 700.35-33.92L700.35-33.92L700.35-33.92Q703.62-33.92 705.98-32.83L705.98-32.83L716.93-33.92L712.19-8.96L712.19-8.96Q712.00-8.19 712.00-6.78L712.00-6.78L712.00-6.78Q712.00-5.38 712.86-4.48L712.86-4.48L712.86-4.48Q713.73-3.58 715.01-3.46L715.01-3.46L715.01-3.46Q714.37-1.28 712.03 0L712.03 0L712.03 0Q709.70 1.28 707.07 1.28L707.07 1.28L707.07 1.28Q704.45 1.28 702.69 0.29L702.69 0.29L702.69 0.29Q700.93-0.70 700.42-2.37L700.42-2.37L700.42-2.37Q699.39-0.77 697.22 0.26L697.22 0.26L697.22 0.26Q695.04 1.28 692.13 1.28L692.13 1.28L692.13 1.28Q689.22 1.28 686.85 0.51L686.85 0.51L686.85 0.51Q684.48-0.26 682.98-1.92ZM696.48-27.90L696.48-27.90L696.48-27.90Q695.74-26.75 695.10-24.80L695.10-24.80L695.10-24.80Q694.46-22.85 693.41-17.63L693.41-17.63L693.41-17.63Q692.35-12.42 692.35-8.70L692.35-8.70L692.35-8.70Q692.35-4.99 692.93-3.90L692.93-3.90L692.93-3.90Q693.50-2.82 694.53-2.82L694.53-2.82L694.53-2.82Q696.58-2.82 698.08-4.77L698.08-4.77L698.08-4.77Q699.58-6.72 700.16-10.18L700.16-10.18L703.55-28.93L703.55-28.93Q702.21-30.08 700.64-30.08L700.64-30.08L700.64-30.08Q699.07-30.08 698.14-29.57L698.14-29.57L698.14-29.57Q697.22-29.06 696.48-27.90ZM739.52-22.46L739.52-22.46L739.52-22.46Q740.42-24.83 740.42-26.88L740.42-26.88L740.42-26.88Q740.42-30.66 737.34-30.66L737.34-30.66L737.34-30.66Q735.74-30.66 734.43-29.22L734.43-29.22L734.43-29.22Q733.12-27.78 733.12-25.98L733.12-25.98L733.12-25.98Q733.12-24.70 734.14-23.68L734.14-23.68L734.14-23.68Q735.62-22.27 739.39-19.97L739.39-19.97L739.39-19.97Q743.17-17.66 744.61-15.78L744.61-15.78L744.61-15.78Q746.05-13.89 746.05-11.30L746.05-11.30L746.05-11.30Q746.05-8.70 744.80-6.34L744.80-6.34L744.80-6.34Q743.55-3.97 741.31-2.30L741.31-2.30L741.31-2.30Q736.51 1.28 728.83 1.28L728.83 1.28L728.83 1.28Q724.67 1.28 721.47-0.90L721.47-0.90L721.47-0.90Q718.27-3.01 718.27-5.50L718.27-5.50L718.27-5.50Q718.27-8 720.10-9.47L720.10-9.47L720.10-9.47Q721.92-10.94 724.61-10.94L724.61-10.94L724.61-10.94Q727.30-10.94 728.96-9.92L728.96-9.92L728.96-9.92Q728.13-7.81 728.13-6.40L728.13-6.40L728.13-6.40Q728.13-2.18 731.71-2.18L731.71-2.18L731.71-2.18Q733.25-2.18 734.27-3.14L734.27-3.14L734.27-3.14Q735.30-4.10 735.30-5.76L735.30-5.76L735.30-5.76Q735.30-9.02 729.79-12.48L729.79-12.48L729.79-12.48Q725.31-15.42 724.29-16.58L724.29-16.58L724.29-16.58Q722.56-18.62 722.56-21.18L722.56-21.18L722.56-21.18Q722.56-23.74 723.78-26.18L723.78-26.18L723.78-26.18Q724.99-28.61 727.23-30.34L727.23-30.34L727.23-30.34Q731.90-33.92 740.03-33.92L740.03-33.92L740.03-33.92Q744.19-33.92 746.66-32.26L746.66-32.26L746.66-32.26Q749.12-30.59 749.12-27.78L749.12-27.78L749.12-27.78Q749.12-24.96 747.42-23.36L747.42-23.36L747.42-23.36Q745.73-21.76 742.66-21.76L742.66-21.76L742.66-21.76Q740.54-21.76 739.52-22.46Z" fill="#ffd5af"></path></g></g><style>text {
  font-size: 64px;
  font-family: Arial Black;
  dominant-baseline: central;
  text-anchor: middle;
}</style></svg>